<svg width="255" height="33" viewBox="0 0 255 33" fill="none" xmlns="http://www.w3.org/2000/svg">
<path d="M2.3 24.675C1.9 24.675 1.55 24.5583 1.25 24.325C0.95 24.0917 0.8 23.5917 0.8 22.825C0.8 22.475 0.925 21.9167 1.175 21.15C1.425 20.3833 1.75833 19.4833 2.175 18.45C2.60833 17.4 3.09167 16.2917 3.625 15.125C4.15833 13.9583 4.71667 12.8 5.3 11.65C5.88333 10.5 6.45 9.43333 7 8.45C7.55 7.46667 8.05833 6.63333 8.525 5.95C9.00833 5.25 9.4 4.78333 9.7 4.55C10.1333 4.23333 10.5667 4.075 11 4.075C11.2333 4.075 11.4583 4.1 11.675 4.15C11.9083 4.2 12.1 4.28333 12.25 4.4C12.6 4.61667 12.9083 5.03333 13.175 5.65C13.4583 6.25 13.7083 6.975 13.925 7.825C14.1583 8.675 14.35 9.59167 14.5 10.575C14.6667 11.5417 14.8083 12.5 14.925 13.45C15.5583 13.3667 15.9917 13.325 16.225 13.325C16.725 13.325 17.1667 13.4 17.55 13.55C17.9333 13.6833 18.1333 13.9667 18.15 14.4C18.1833 14.8167 18.05 15.1667 17.75 15.45C17.4667 15.7333 17.1 15.9417 16.65 16.075C16.45 16.1417 15.9667 16.25 15.2 16.4C15.25 17.25 15.275 17.9667 15.275 18.55C15.275 20.0333 15.1917 21.1833 15.025 22C14.875 22.8167 14.675 23.4 14.425 23.75C14.1917 24.1 13.9417 24.3083 13.675 24.375C13.425 24.4583 13.2 24.5 13 24.5C12.9833 24.5 12.9667 24.5 12.95 24.5C12.4667 24.5 12.1083 24.375 11.875 24.125C11.6583 23.875 11.55 23.4583 11.55 22.875V21.1C11.55 20.55 11.5417 19.9333 11.525 19.25C11.5083 18.5667 11.475 17.8417 11.425 17.075C10.4417 17.2417 9.45833 17.4083 8.475 17.575C7.50833 17.725 6.675 17.8583 5.975 17.975C5.65833 18.725 5.38333 19.4 5.15 20C4.91667 20.5833 4.75833 21.0417 4.675 21.375C4.425 22.1917 4.19167 22.8333 3.975 23.3C3.75833 23.75 3.55 24.0667 3.35 24.25C3.16667 24.45 2.99167 24.5667 2.825 24.6C2.65833 24.65 2.48333 24.675 2.3 24.675ZM7.35 14.9C8.05 14.7333 8.725 14.5833 9.375 14.45C10.025 14.3 10.6417 14.1667 11.225 14.05C11.1417 13.0167 11.0417 12.0083 10.925 11.025C10.8083 10.0417 10.675 9.16667 10.525 8.4C10.0917 9.23333 9.58333 10.2333 9 11.4C8.43333 12.55 7.88333 13.7167 7.35 14.9ZM43.691 23.425C43.591 24.325 43.0577 24.775 42.091 24.775C41.591 24.775 41.191 24.625 40.891 24.325C40.6077 24.025 40.466 23.5917 40.466 23.025C40.466 22.0583 40.5077 21.025 40.591 19.925C40.691 18.8083 40.8077 17.6833 40.941 16.55C41.091 15.4167 41.2327 14.3333 41.366 13.3C40.766 14.1667 40.1327 15.0583 39.466 15.975C38.7993 16.8917 38.1327 17.7833 37.466 18.65C36.7993 19.5167 36.1577 20.3 35.541 21C34.941 21.6833 34.391 22.2333 33.891 22.65C33.391 23.05 32.9743 23.25 32.641 23.25C31.841 23.25 31.1493 22.9583 30.566 22.375C29.9827 21.775 29.691 21.0167 29.691 20.1C29.691 19.7833 29.7243 19.3583 29.791 18.825C29.8577 18.275 29.941 17.6917 30.041 17.075C30.141 16.4583 30.2243 15.875 30.291 15.325C30.3577 14.775 30.391 14.3417 30.391 14.025C30.391 14.025 30.391 14.0083 30.391 13.975C30.4077 13.8917 30.391 13.85 30.341 13.85C30.2743 13.85 30.091 14.075 29.791 14.525C29.491 14.9583 29.1243 15.525 28.691 16.225C28.2577 16.925 27.7993 17.6583 27.316 18.425C26.8493 19.1917 26.4077 19.9083 25.991 20.575C25.591 21.2417 25.2577 21.7583 24.991 22.125C24.6243 22.6917 24.2827 23.05 23.966 23.2C23.6493 23.35 23.2827 23.425 22.866 23.425C22.2827 23.425 21.8243 23.2333 21.491 22.85C21.1743 22.45 21.016 21.8917 21.016 21.175C21.016 20.875 21.066 20.4083 21.166 19.775C21.2827 19.1417 21.4243 18.4417 21.591 17.675C21.7577 16.8917 21.9243 16.1333 22.091 15.4C22.2743 14.65 22.4327 14.0167 22.566 13.5C22.716 12.8167 22.9243 12.3417 23.191 12.075C23.4743 11.7917 23.8327 11.65 24.266 11.65C25.2827 11.65 25.791 12.15 25.791 13.15C25.791 13.3333 25.7327 13.6333 25.616 14.05C25.4993 14.4667 25.3577 14.95 25.191 15.5C25.0243 16.05 24.8493 16.6167 24.666 17.2C24.4827 17.7667 24.3327 18.3 24.216 18.8C24.616 18.1 25.0493 17.35 25.516 16.55C25.9827 15.75 26.4577 14.9667 26.941 14.2C27.441 13.4333 27.9327 12.7333 28.416 12.1C28.916 11.4667 29.4077 10.9667 29.891 10.6C30.3743 10.2167 30.8327 10.025 31.266 10.025C31.6994 10.025 32.1244 10.1833 32.541 10.5C32.9577 10.8 33.2993 11.1917 33.566 11.675C33.8494 12.1417 33.991 12.6417 33.991 13.175C33.991 13.675 33.9244 14.275 33.791 14.975C33.6577 15.675 33.5077 16.4083 33.341 17.175C33.1743 17.9417 33.0577 18.6917 32.991 19.425C33.5577 18.7917 34.1577 18.075 34.791 17.275C35.4243 16.4583 36.0743 15.6167 36.741 14.75C37.4077 13.8833 38.0577 13.0417 38.691 12.225C39.341 11.4083 39.941 10.6667 40.491 10C41.0577 9.33333 41.5577 8.80833 41.991 8.425C42.4244 8.025 42.7577 7.825 42.991 7.825C43.6743 7.825 44.2077 8.00833 44.591 8.375C44.991 8.725 45.191 9.34167 45.191 10.225C45.191 10.775 45.1493 11.4917 45.066 12.375C44.9994 13.2583 44.8994 14.2167 44.766 15.25C44.6494 16.2667 44.516 17.3 44.366 18.35C44.2327 19.3833 44.1077 20.3417 43.991 21.225C43.8744 22.1083 43.7744 22.8417 43.691 23.425ZM51.3904 24.1C50.3404 24.1 49.5738 23.7833 49.0904 23.15C48.6238 22.5 48.3904 21.675 48.3904 20.675C48.3904 19.725 48.5988 18.8083 49.0154 17.925C49.4321 17.025 49.9904 16.1667 50.6904 15.35C51.3904 14.5333 52.1738 13.775 53.0404 13.075C53.9071 12.3583 54.7821 11.7167 55.6654 11.15C56.5654 10.5667 57.4238 10.075 58.2404 9.675C59.0571 9.25833 59.7654 8.94167 60.3654 8.725C60.9654 8.50833 61.3988 8.4 61.6654 8.4C61.9488 8.4 62.1821 8.475 62.3654 8.625C62.5654 8.75833 62.6654 9.025 62.6654 9.425C62.6654 9.84167 62.4988 10.2167 62.1654 10.55C61.8321 10.8833 61.4238 11.1667 60.9404 11.4C60.2571 11.7333 59.4821 12.1417 58.6154 12.625C57.7654 13.0917 56.9071 13.625 56.0404 14.225C55.1738 14.825 54.3738 15.4667 53.6404 16.15C52.9238 16.8333 52.3404 17.55 51.8904 18.3C51.4404 19.0333 51.2154 19.7833 51.2154 20.55C51.2154 20.7167 51.2488 20.85 51.3154 20.95C51.3821 21.05 51.5238 21.1 51.7404 21.1C52.0238 21.1 52.3988 20.9667 52.8654 20.7C53.3321 20.4167 53.8404 20.05 54.3904 19.6C54.9404 19.1333 55.4904 18.625 56.0404 18.075C56.5904 17.5083 57.0988 16.9417 57.5654 16.375C58.0488 15.7917 58.4488 15.25 58.7654 14.75C58.9988 14.3667 59.2738 14.05 59.5904 13.8C59.9238 13.55 60.2654 13.425 60.6154 13.425C60.8988 13.425 61.1321 13.5083 61.3154 13.675C61.5154 13.825 61.6154 14.1 61.6154 14.5C61.6154 14.6333 61.6071 14.95 61.5904 15.45C61.5738 15.9333 61.5488 16.525 61.5154 17.225C61.4988 17.9083 61.4904 18.625 61.4904 19.375C61.4904 20.025 61.5488 20.5917 61.6654 21.075C61.7988 21.5417 62.0738 21.775 62.4904 21.775C62.9904 21.775 63.5071 21.6 64.0404 21.25C64.5738 20.8833 65.0904 20.425 65.5904 19.875C66.1071 19.3083 66.5821 18.7083 67.0154 18.075C67.4488 17.4417 67.8154 16.8417 68.1154 16.275C68.4321 15.6917 68.6571 15.225 68.7904 14.875C69.0071 13.4083 69.2904 12.2583 69.6404 11.425C69.9904 10.575 70.3738 9.975 70.7904 9.625C71.2238 9.275 71.6404 9.1 72.0404 9.1C72.4904 9.1 72.8654 9.20833 73.1654 9.425C73.4821 9.64167 73.6404 10.15 73.6404 10.95C73.6404 11.3667 73.4654 11.9917 73.1154 12.825C72.7654 13.6583 72.2988 14.575 71.7154 15.575C71.5821 16.325 71.4988 17.1 71.4654 17.9C71.4321 18.7 71.4821 19.45 71.6154 20.15C72.0654 19.8333 72.5238 19.3667 72.9904 18.75C73.4571 18.1167 73.9238 17.4167 74.3904 16.65C74.8571 15.8667 75.3238 15.0833 75.7904 14.3C76.2571 13.5 76.7154 12.7667 77.1654 12.1C77.6321 11.4333 78.0821 10.9 78.5154 10.5C78.9654 10.0833 79.4071 9.875 79.8404 9.875C80.2904 9.875 80.6988 9.95833 81.0654 10.125C81.4488 10.275 81.7654 10.575 82.0154 11.025C82.2821 11.4583 82.4821 12.0833 82.6154 12.9C82.7654 13.7 82.8404 14.75 82.8404 16.05C82.8404 16.7333 82.9071 17.4 83.0404 18.05C83.1738 18.6833 83.3988 19.2083 83.7154 19.625C84.0321 20.025 84.4738 20.225 85.0404 20.225C85.9571 20.225 86.7738 20.075 87.4904 19.775C88.2071 19.4583 88.8321 19.0917 89.3654 18.675C89.8988 18.2583 90.3404 17.9 90.6904 17.6C91.0571 17.2833 91.3404 17.125 91.5404 17.125C91.8738 17.125 92.1238 17.225 92.2904 17.425C92.4738 17.6083 92.5654 17.8417 92.5654 18.125C92.5654 18.2917 92.4238 18.5833 92.1404 19C91.8738 19.4 91.4988 19.85 91.0154 20.35C90.5488 20.8333 89.9988 21.3083 89.3654 21.775C88.7488 22.225 88.0904 22.6 87.3904 22.9C86.6904 23.2 85.9821 23.35 85.2654 23.35C83.9654 23.35 82.8904 23.1167 82.0404 22.65C81.2071 22.1667 80.5821 21.3667 80.1654 20.25C79.7654 19.1167 79.5654 17.5917 79.5654 15.675C79.5654 15.5583 79.5654 15.45 79.5654 15.35C79.5654 15.25 79.5654 15.15 79.5654 15.05C79.5654 14.6333 79.5571 14.275 79.5404 13.975C79.5404 13.675 79.4988 13.4417 79.4154 13.275C79.1488 13.725 78.8238 14.2917 78.4404 14.975C78.0738 15.6583 77.6654 16.3917 77.2154 17.175C76.7654 17.9583 76.2821 18.7333 75.7654 19.5C75.2654 20.2667 74.7571 20.9667 74.2404 21.6C73.7238 22.2333 73.2071 22.7417 72.6904 23.125C72.1904 23.5083 71.7154 23.7 71.2654 23.7C70.9321 23.7 70.5654 23.5333 70.1654 23.2C69.7821 22.8667 69.4571 22.4167 69.1904 21.85C68.9238 21.2667 68.7904 20.6083 68.7904 19.875C68.0738 20.775 67.3321 21.6 66.5654 22.35C65.7988 23.0833 65.0404 23.6667 64.2904 24.1C63.5571 24.55 62.8571 24.775 62.1904 24.775C61.6404 24.775 61.1071 24.6167 60.5904 24.3C60.0904 23.9833 59.6571 23.4167 59.2904 22.6C58.9238 21.7833 58.6904 20.625 58.5904 19.125C57.8071 20.1083 56.9904 20.975 56.1404 21.725C55.3071 22.475 54.4821 23.0583 53.6654 23.475C52.8654 23.8917 52.1071 24.1 51.3904 24.1ZM100.981 10.625C101.898 8.44167 102.706 6.19167 103.406 3.875C103.539 3.40833 103.731 3.05 103.981 2.8C104.248 2.55 104.614 2.425 105.081 2.425C105.464 2.425 105.756 2.54167 105.956 2.775C106.156 2.99167 106.256 3.29167 106.256 3.675C106.256 3.99167 106.123 4.55833 105.856 5.375C105.589 6.175 105.264 7.19167 104.881 8.425C104.498 9.65833 104.114 11.0833 103.731 12.7C103.348 14.3167 103.023 16.0917 102.756 18.025C102.489 19.9583 102.356 22.025 102.356 24.225C102.356 24.825 102.239 25.3167 102.006 25.7C101.789 26.1 101.406 26.3 100.856 26.3C100.256 26.3 99.8144 26.0917 99.5311 25.675C99.2644 25.2583 99.1311 24.725 99.1311 24.075C99.1311 22.7917 99.1727 21.725 99.2561 20.875C99.3561 20.0083 99.4561 19.2667 99.5561 18.65C98.7394 20.05 97.8727 21.2583 96.9561 22.275C96.0561 23.275 95.1894 24.0417 94.3561 24.575C93.5227 25.125 92.8061 25.4 92.2061 25.4C91.2227 25.4 90.4227 25.125 89.8061 24.575C89.1894 24.025 88.8811 23.1917 88.8811 22.075C88.8811 21.2083 89.0894 20.3167 89.5061 19.4C89.9227 18.4667 90.4727 17.55 91.1561 16.65C91.8394 15.75 92.5894 14.9083 93.4061 14.125C94.2394 13.325 95.0727 12.625 95.9061 12.025C96.7394 11.4083 97.5144 10.925 98.2311 10.575C98.9477 10.225 99.5311 10.05 99.9811 10.05C100.481 10.05 100.814 10.2417 100.981 10.625ZM100.406 11.975C100.306 12.0417 100.198 12.1083 100.081 12.175C99.9811 12.225 99.8811 12.2833 99.7811 12.35C99.1477 12.75 98.4727 13.2333 97.7561 13.8C97.0394 14.35 96.3311 14.9667 95.6311 15.65C94.9311 16.3167 94.2894 17.0167 93.7061 17.75C93.1394 18.4667 92.6811 19.1833 92.3311 19.9C91.9977 20.6 91.8311 21.275 91.8311 21.925C91.8311 22.0417 91.8811 22.125 91.9811 22.175C92.0811 22.225 92.1727 22.25 92.2561 22.25C92.8394 22.25 93.4644 21.9917 94.1311 21.475C94.8144 20.9583 95.5061 20.2417 96.2061 19.325C96.9227 18.3917 97.6311 17.3 98.3311 16.05C99.0477 14.8 99.7394 13.4417 100.406 11.975ZM120.171 12.675C120.171 13.4417 119.912 14.2167 119.396 15C118.879 15.7833 118.046 16.5417 116.896 17.275C115.762 18.0083 114.262 18.7 112.396 19.35C112.496 20.2333 112.812 20.8667 113.346 21.25C113.896 21.6167 114.771 21.8 115.971 21.8C117.054 21.8 118.071 21.6917 119.021 21.475C119.987 21.2417 120.887 20.9333 121.721 20.55C121.487 19.9833 121.312 19.375 121.196 18.725C121.079 18.0583 121.021 17.35 121.021 16.6C121.021 15.0833 121.262 13.8167 121.746 12.8C122.229 11.7833 122.837 11.025 123.571 10.525C124.304 10.0083 125.054 9.75 125.821 9.75C126.521 9.75 127.162 9.88333 127.746 10.15C128.346 10.4167 128.821 10.825 129.171 11.375C129.537 11.9083 129.721 12.6 129.721 13.45C129.721 14.8 129.312 16.1167 128.496 17.4C127.696 18.6833 126.646 19.8417 125.346 20.875C125.829 21.3417 126.404 21.575 127.071 21.575C127.671 21.575 128.337 21.4167 129.071 21.1C129.804 20.7833 130.546 20.3667 131.296 19.85C132.062 19.3167 132.804 18.75 133.521 18.15C134.237 17.5333 134.871 16.9417 135.421 16.375C135.621 16.125 135.812 15.9667 135.996 15.9C136.196 15.8167 136.379 15.775 136.546 15.775C136.829 15.775 137.062 15.8667 137.246 16.05C137.429 16.2167 137.521 16.4583 137.521 16.775C137.521 16.925 137.479 17.1083 137.396 17.325C137.312 17.5417 137.162 17.775 136.946 18.025C136.329 18.6917 135.596 19.4083 134.746 20.175C133.912 20.925 133.029 21.6333 132.096 22.3C131.162 22.9667 130.237 23.5083 129.321 23.925C128.404 24.3417 127.554 24.55 126.771 24.55C125.237 24.55 123.929 23.8833 122.846 22.55C121.712 23.1667 120.521 23.65 119.271 24C118.037 24.3667 116.821 24.55 115.621 24.55C113.504 24.55 111.946 24.0667 110.946 23.1C109.946 22.1333 109.446 20.8167 109.446 19.15C109.446 17.6 109.646 16.175 110.046 14.875C110.446 13.5583 110.971 12.425 111.621 11.475C112.271 10.5083 112.971 9.75833 113.721 9.225C114.487 8.69167 115.229 8.425 115.946 8.425C117.362 8.425 118.421 8.83333 119.121 9.65C119.821 10.4667 120.171 11.475 120.171 12.675ZM112.546 16.925C113.396 16.5083 114.187 16.0417 114.921 15.525C115.671 15.0083 116.271 14.4833 116.721 13.95C117.187 13.4167 117.421 12.9167 117.421 12.45C117.421 12.0167 117.329 11.6833 117.146 11.45C116.962 11.2167 116.604 11.1 116.071 11.1C115.737 11.1 115.387 11.275 115.021 11.625C114.671 11.9583 114.329 12.4083 113.996 12.975C113.679 13.5417 113.387 14.1667 113.121 14.85C112.871 15.5333 112.679 16.225 112.546 16.925ZM124.271 18.825C125.137 18.0417 125.804 17.1667 126.271 16.2C126.754 15.2167 126.996 14.2 126.996 13.15C126.996 13.0333 126.912 12.8833 126.746 12.7C126.596 12.5 126.371 12.4 126.071 12.4C125.621 12.4 125.237 12.575 124.921 12.925C124.604 13.275 124.362 13.7333 124.196 14.3C124.046 14.85 123.971 15.45 123.971 16.1C123.971 17.15 124.071 18.0583 124.271 18.825ZM135.165 32.025C134.698 32.025 134.331 31.8583 134.065 31.525C133.815 31.2083 133.69 30.7167 133.69 30.05C133.69 29.1333 133.773 28.0417 133.94 26.775C134.106 25.5083 134.331 24.1667 134.615 22.75C134.898 21.3333 135.206 19.9417 135.54 18.575C135.94 17.0083 136.331 15.5833 136.715 14.3C137.115 13.0167 137.515 11.9917 137.915 11.225C138.331 10.4417 138.748 10.05 139.165 10.05C139.548 10.05 139.881 10.1917 140.165 10.475C140.465 10.7417 140.615 11.1417 140.615 11.675C140.615 12.0583 140.515 12.6083 140.315 13.325C140.115 14.025 139.865 14.9 139.565 15.95C140.131 15.0167 140.715 14.1 141.315 13.2C141.931 12.3 142.556 11.4833 143.19 10.75C143.823 10.0167 144.44 9.43333 145.04 9C145.64 8.56667 146.206 8.35 146.74 8.35C147.373 8.35 147.931 8.53333 148.415 8.9C148.915 9.26667 149.306 9.76667 149.59 10.4C149.873 11.0333 150.015 11.75 150.015 12.55C150.015 14.0333 149.748 15.475 149.215 16.875C148.681 18.2583 147.94 19.5 146.99 20.6C146.056 21.7 144.965 22.575 143.715 23.225C142.465 23.8583 141.115 24.175 139.665 24.175C139.248 24.175 138.865 24.1333 138.515 24.05C138.181 23.9833 137.873 23.9 137.59 23.8C137.39 24.8667 137.198 25.9583 137.015 27.075C136.848 28.2083 136.673 29.4 136.49 30.65C136.29 31.5667 135.848 32.025 135.165 32.025ZM146.99 11.3C146.623 11.3 146.156 11.55 145.59 12.05C145.04 12.55 144.44 13.2083 143.79 14.025C143.14 14.825 142.481 15.7 141.815 16.65C141.165 17.5833 140.54 18.5 139.94 19.4C139.356 20.3 138.856 21.0833 138.44 21.75C139.706 21.6167 140.823 21.2833 141.79 20.75C142.756 20.2 143.581 19.5333 144.265 18.75C144.948 17.9667 145.498 17.1417 145.915 16.275C146.348 15.3917 146.665 14.5333 146.865 13.7C147.065 12.8667 147.165 12.1417 147.165 11.525C147.165 11.375 147.106 11.3 146.99 11.3ZM167.833 24.975C167.167 24.975 166.667 24.7917 166.333 24.425C166 24.0583 165.833 23.6833 165.833 23.3C165.833 22.85 165.917 22.5083 166.083 22.275C166.25 22.0417 166.575 21.8667 167.058 21.75C167.692 21.6167 168.35 21.45 169.033 21.25C169.733 21.05 170.4 20.8417 171.033 20.625C171.683 20.3917 172.25 20.1583 172.733 19.925C173.217 19.675 173.567 19.4417 173.783 19.225C173.517 19.075 173.092 18.9 172.508 18.7C171.925 18.4833 171.275 18.2333 170.558 17.95C169.858 17.65 169.183 17.3 168.533 16.9C167.883 16.5 167.35 16.0333 166.933 15.5C166.517 14.9667 166.308 14.3583 166.308 13.675C166.308 12.725 166.55 11.8333 167.033 11C167.517 10.1667 168.158 9.39167 168.958 8.675C169.758 7.95833 170.625 7.3 171.558 6.7C172.508 6.1 173.45 5.55833 174.383 5.075C175.333 4.575 176.183 4.13333 176.933 3.75C177.217 3.58333 177.483 3.475 177.733 3.425C178 3.35833 178.242 3.325 178.458 3.325C179.208 3.325 179.725 3.50833 180.008 3.875C180.292 4.24167 180.433 4.61667 180.433 5C180.433 5.26667 180.308 5.58333 180.058 5.95C179.808 6.3 179.408 6.625 178.858 6.925C178.325 7.225 177.617 7.44167 176.733 7.575C176.583 7.59167 176.45 7.60833 176.333 7.625C175.667 7.95833 174.95 8.35833 174.183 8.825C173.417 9.29167 172.692 9.78333 172.008 10.3C171.342 10.8 170.792 11.3 170.358 11.8C169.925 12.3 169.708 12.75 169.708 13.15C169.708 13.6 169.892 14.0083 170.258 14.375C170.625 14.725 171.092 15.05 171.658 15.35C172.242 15.6333 172.85 15.9083 173.483 16.175C174.133 16.4417 174.742 16.7167 175.308 17C175.892 17.2667 176.367 17.5667 176.733 17.9C177.1 18.2333 177.283 18.6083 177.283 19.025C177.283 19.5917 177.092 20.1333 176.708 20.65C176.325 21.1667 175.825 21.65 175.208 22.1C174.592 22.5333 173.917 22.925 173.183 23.275C172.45 23.625 171.725 23.925 171.008 24.175C170.308 24.4417 169.675 24.6417 169.108 24.775C168.542 24.9083 168.117 24.975 167.833 24.975ZM183.494 24.375C183.027 24.375 182.61 24.2167 182.244 23.9C181.894 23.5833 181.719 23.0667 181.719 22.35C181.719 21.9667 181.769 21.425 181.869 20.725C181.985 20.025 182.135 19.2667 182.319 18.45C182.502 17.6167 182.702 16.7917 182.919 15.975C183.152 15.1583 183.377 14.4333 183.594 13.8C183.81 13.15 184.002 12.6667 184.169 12.35C184.385 11.9667 184.585 11.7333 184.769 11.65C184.969 11.55 185.16 11.5 185.344 11.5C185.677 11.5 185.985 11.6 186.269 11.8C186.569 12 186.719 12.4417 186.719 13.125C186.719 13.3917 186.669 13.825 186.569 14.425C186.469 15.0083 186.344 15.6917 186.194 16.475C186.044 17.2583 185.877 18.0667 185.694 18.9C185.527 19.7333 185.36 20.525 185.194 21.275C185.044 22.0083 184.919 22.625 184.819 23.125C184.735 23.5417 184.56 23.85 184.294 24.05C184.044 24.2667 183.777 24.375 183.494 24.375ZM186.369 9.025C185.819 9.025 185.31 8.86667 184.844 8.55C184.377 8.21667 184.144 7.70833 184.144 7.025C184.144 6.45833 184.285 6 184.569 5.65C184.852 5.3 185.185 5.05 185.569 4.9C185.969 4.73333 186.319 4.65 186.619 4.65C186.919 4.65 187.252 4.71667 187.619 4.85C187.985 4.96667 188.302 5.19167 188.569 5.525C188.852 5.84167 188.994 6.3 188.994 6.9C188.994 7.3 188.852 7.66667 188.569 8C188.285 8.31667 187.935 8.56667 187.519 8.75C187.119 8.93333 186.735 9.025 186.369 9.025ZM192.578 24C192.178 24 191.778 23.8667 191.378 23.6C190.994 23.3167 190.678 22.9167 190.428 22.4C190.178 21.8667 190.053 21.225 190.053 20.475C190.053 19.475 190.186 18.4083 190.453 17.275C190.736 16.1417 191.078 15.0083 191.478 13.875C191.878 12.7417 192.269 11.675 192.653 10.675C192.836 10.1917 193.061 9.86667 193.328 9.7C193.594 9.51667 193.944 9.425 194.378 9.425C195.361 9.425 195.853 9.91667 195.853 10.9C195.853 11.0667 195.778 11.3917 195.628 11.875C195.478 12.3417 195.278 12.9167 195.028 13.6C194.794 14.2833 194.544 15.025 194.278 15.825C194.028 16.6083 193.794 17.4083 193.578 18.225C193.378 19.025 193.219 19.7833 193.103 20.5C193.486 19.9167 193.911 19.1917 194.378 18.325C194.861 17.4417 195.369 16.5167 195.903 15.55C196.453 14.5833 197.003 13.6833 197.553 12.85C198.103 12 198.644 11.3083 199.178 10.775C199.711 10.2417 200.219 9.975 200.703 9.975C201.119 9.975 201.511 10.0583 201.878 10.225C202.261 10.375 202.594 10.675 202.878 11.125C203.161 11.5583 203.378 12.1833 203.528 13C203.694 13.8167 203.778 14.8917 203.778 16.225C203.778 16.8917 203.836 17.5417 203.953 18.175C204.086 18.7917 204.303 19.3083 204.603 19.725C204.903 20.125 205.328 20.325 205.878 20.325C206.828 20.325 207.678 20.15 208.428 19.8C209.178 19.45 209.836 19.0417 210.403 18.575C210.969 18.1083 211.444 17.7 211.828 17.35C212.061 17.1167 212.261 16.9333 212.428 16.8C212.611 16.6667 212.761 16.6 212.878 16.6C213.228 16.6 213.478 16.6917 213.628 16.875C213.794 17.0583 213.878 17.3083 213.878 17.625C213.878 17.7917 213.736 18.1 213.453 18.55C213.169 19 212.769 19.5167 212.253 20.1C211.753 20.6667 211.178 21.2167 210.528 21.75C209.878 22.2833 209.178 22.725 208.428 23.075C207.678 23.425 206.911 23.6 206.128 23.6C204.811 23.6 203.719 23.3667 202.853 22.9C202.003 22.4167 201.369 21.6167 200.953 20.5C200.536 19.3667 200.328 17.825 200.328 15.875C200.328 15.825 200.328 15.7417 200.328 15.625C200.328 15.1083 200.319 14.65 200.303 14.25C200.303 13.85 200.278 13.525 200.228 13.275C199.944 13.7917 199.603 14.4083 199.203 15.125C198.819 15.8417 198.403 16.6083 197.953 17.425C197.503 18.225 197.036 19.0167 196.553 19.8C196.069 20.5667 195.586 21.2667 195.103 21.9C194.636 22.5333 194.186 23.0417 193.753 23.425C193.319 23.8083 192.928 24 192.578 24ZM213.675 31.2C212.425 31.2 211.475 31.1083 210.825 30.925C210.192 30.7417 209.759 30.5 209.525 30.2C209.292 29.9167 209.175 29.625 209.175 29.325C209.175 28.9083 209.309 28.5667 209.575 28.3C209.859 28.0333 210.225 27.9 210.675 27.9C210.975 27.9 211.409 27.9417 211.975 28.025C212.542 28.1083 213.109 28.15 213.675 28.15C215.342 28.15 216.717 27.75 217.8 26.95C218.884 26.1667 219.734 24.975 220.35 23.375C220.967 21.7583 221.392 19.725 221.625 17.275C220.475 19.1583 219.2 20.6667 217.8 21.8C216.417 22.9333 214.975 23.5 213.475 23.5C211.709 23.5 210.825 22.6333 210.825 20.9C210.825 20.0667 211.05 19.1917 211.5 18.275C211.95 17.3583 212.55 16.45 213.3 15.55C214.05 14.65 214.875 13.8 215.775 13C216.675 12.1833 217.575 11.4667 218.475 10.85C219.392 10.2333 220.242 9.75 221.025 9.4C221.809 9.03333 222.442 8.85 222.925 8.85C223.309 8.85 223.642 8.91667 223.925 9.05C224.225 9.18333 224.459 9.45 224.625 9.85C224.792 10.2333 224.875 10.8 224.875 11.55C224.875 13.6333 224.8 15.65 224.65 17.6C224.5 19.5333 224.209 21.325 223.775 22.975C223.342 24.625 222.709 26.0667 221.875 27.3C221.059 28.5333 219.984 29.4917 218.65 30.175C217.317 30.8583 215.659 31.2 213.675 31.2ZM214.025 20.4C214.025 20.5167 214.075 20.575 214.175 20.575C214.509 20.575 214.959 20.4 215.525 20.05C216.092 19.6833 216.7 19.2 217.35 18.6C218.017 17.9833 218.667 17.3 219.3 16.55C219.934 15.7833 220.492 14.9917 220.975 14.175C221.475 13.3583 221.834 12.5667 222.05 11.8C221.184 12.3 220.284 12.8833 219.35 13.55C218.434 14.2 217.567 14.9 216.75 15.65C215.95 16.4 215.292 17.1833 214.775 18C214.275 18.8 214.025 19.6 214.025 20.4ZM230.961 25.95C230.194 25.95 229.644 25.7333 229.311 25.3C228.978 24.8667 228.811 24.2333 228.811 23.4C228.811 22.6333 228.953 21.6333 229.236 20.4C229.536 19.15 229.928 17.7583 230.411 16.225C230.911 14.675 231.469 13.0833 232.086 11.45C232.703 9.8 233.344 8.18333 234.011 6.6C234.678 5 235.328 3.53333 235.961 2.2C236.261 1.61667 236.578 1.21667 236.911 1C237.244 0.783333 237.611 0.674999 238.011 0.674999C238.394 0.674999 238.719 0.783333 238.986 1C239.253 1.2 239.386 1.525 239.386 1.975C239.386 2.075 239.253 2.45833 238.986 3.125C238.719 3.775 238.369 4.625 237.936 5.675C237.503 6.70833 237.028 7.875 236.511 9.175C235.994 10.4583 235.478 11.8 234.961 13.2C234.444 14.5833 233.978 15.95 233.561 17.3C233.144 18.65 232.811 19.9 232.561 21.05C233.144 20.2667 233.769 19.4 234.436 18.45C235.119 17.4833 235.811 16.525 236.511 15.575C237.228 14.6083 237.928 13.725 238.611 12.925C239.311 12.125 239.961 11.4833 240.561 11C241.161 10.5167 241.686 10.275 242.136 10.275C242.969 10.275 243.636 10.5083 244.136 10.975C244.653 11.425 244.911 12.2083 244.911 13.325C244.911 13.8417 244.811 14.4667 244.611 15.2C244.411 15.9167 244.169 16.675 243.886 17.475C243.619 18.2583 243.386 19.0167 243.186 19.75C242.986 20.4833 242.886 21.125 242.886 21.675C242.886 21.975 243.028 22.125 243.311 22.125C244.128 22.125 244.953 21.95 245.786 21.6C246.636 21.25 247.444 20.8167 248.211 20.3C248.994 19.7667 249.703 19.2417 250.336 18.725C250.986 18.1917 251.511 17.75 251.911 17.4C252.194 17.1333 252.453 16.9583 252.686 16.875C252.919 16.775 253.136 16.725 253.336 16.725C254.019 16.725 254.361 17.0667 254.361 17.75C254.361 17.8833 254.336 18.05 254.286 18.25C254.236 18.4333 254.078 18.6667 253.811 18.95C253.544 19.2333 253.144 19.6333 252.611 20.15C252.078 20.6667 251.453 21.2167 250.736 21.8C250.036 22.3833 249.269 22.9417 248.436 23.475C247.619 23.9917 246.778 24.4167 245.911 24.75C245.044 25.0833 244.203 25.25 243.386 25.25C242.153 25.25 241.203 24.9 240.536 24.2C239.869 23.5167 239.536 22.5833 239.536 21.4C239.536 20.5833 239.703 19.5583 240.036 18.325C240.369 17.075 240.744 15.8 241.161 14.5C240.578 15.0667 239.969 15.7417 239.336 16.525C238.703 17.2917 238.061 18.1083 237.411 18.975C236.761 19.825 236.119 20.6667 235.486 21.5C234.869 22.3167 234.278 23.0667 233.711 23.75C233.144 24.4167 232.628 24.95 232.161 25.35C231.694 25.75 231.294 25.95 230.961 25.95Z" fill="white"/>
</svg>
