<svg width="48" height="48" viewBox="0 0 48 48" fill="none" xmlns="http://www.w3.org/2000/svg">
<rect width="48" height="48" rx="24" fill="black"/>
<path d="M14.224 36.864C13.712 36.864 13.264 36.7147 12.88 36.416C12.496 36.1173 12.304 35.4773 12.304 34.496C12.304 34.048 12.464 33.3333 12.784 32.352C13.104 31.3707 13.5307 30.2187 14.064 28.896C14.6187 27.552 15.2373 26.1333 15.92 24.64C16.6027 23.1467 17.3173 21.664 18.064 20.192C18.8107 18.72 19.536 17.3547 20.24 16.096C20.944 14.8373 21.5947 13.7707 22.192 12.896C22.8107 12 23.312 11.4027 23.696 11.104C24.2507 10.6987 24.8053 10.496 25.36 10.496C25.6587 10.496 25.9467 10.528 26.224 10.592C26.5227 10.656 26.768 10.7627 26.96 10.912C27.408 11.1893 27.8027 11.7227 28.144 12.512C28.5067 13.28 28.8267 14.208 29.104 15.296C29.4027 16.384 29.648 17.5573 29.84 18.816C30.0533 20.0533 30.2347 21.28 30.384 22.496C31.1947 22.3893 31.7493 22.336 32.048 22.336C32.688 22.336 33.2533 22.432 33.744 22.624C34.2347 22.7947 34.4907 23.1573 34.512 23.712C34.5547 24.2453 34.384 24.6933 34 25.056C33.6373 25.4187 33.168 25.6853 32.592 25.856C32.336 25.9413 31.7173 26.08 30.736 26.272C30.8 27.36 30.832 28.2773 30.832 29.024C30.832 30.9227 30.7253 32.3947 30.512 33.44C30.32 34.4853 30.064 35.232 29.744 35.68C29.4453 36.128 29.1253 36.3947 28.784 36.48C28.464 36.5867 28.176 36.64 27.92 36.64C27.8987 36.64 27.8773 36.64 27.856 36.64C27.2373 36.64 26.7787 36.48 26.48 36.16C26.2027 35.84 26.064 35.3067 26.064 34.56V32.288C26.064 31.584 26.0533 30.7947 26.032 29.92C26.0107 29.0453 25.968 28.1173 25.904 27.136C24.6453 27.3493 23.3867 27.5627 22.128 27.776C20.8907 27.968 19.824 28.1387 18.928 28.288C18.5227 29.248 18.1707 30.112 17.872 30.88C17.5733 31.6267 17.3707 32.2133 17.264 32.64C16.944 33.6853 16.6453 34.5067 16.368 35.104C16.0907 35.68 15.824 36.0853 15.568 36.32C15.3333 36.576 15.1093 36.7253 14.896 36.768C14.6827 36.832 14.4587 36.864 14.224 36.864ZM20.688 24.352C21.584 24.1387 22.448 23.9467 23.28 23.776C24.112 23.584 24.9013 23.4133 25.648 23.264C25.5413 21.9413 25.4133 20.6507 25.264 19.392C25.1147 18.1333 24.944 17.0133 24.752 16.032C24.1973 17.0987 23.5467 18.3787 22.8 19.872C22.0747 21.344 21.3707 22.8373 20.688 24.352Z" fill="white"/>
</svg>
